<?xml version="1.0" encoding="UTF-8"?>
<svg version="1.1" xmlns="http://www.w3.org/2000/svg" width="512" height="512">
<path d="M0 0 C1.62453598 -0.01051392 1.62453598 -0.01051392 3.28189087 -0.02124023 C6.82304363 -0.03868766 10.36338167 -0.02724334 13.90454102 -0.01367188 C16.38973644 -0.01637077 18.87493084 -0.0202565 21.36012268 -0.02526855 C26.55382397 -0.03114588 31.74724895 -0.02265809 36.94091797 -0.00390625 C43.56912739 0.0188697 50.19668831 0.0057567 56.82487392 -0.01819611 C61.95271104 -0.03271184 67.0803967 -0.02802139 72.2082386 -0.01768494 C74.65085999 -0.01503299 77.09349553 -0.01823291 79.53610039 -0.02760315 C112.02161838 -0.12488902 112.02161838 -0.12488902 125.47094727 12.51757812 C127.49793827 14.84742389 129.3528767 17.29591956 131.21870422 19.75558472 C140.95113727 32.23450074 150.77099347 42.985198 167.11752319 45.17926025 C179.8324388 46.48081006 192.65030922 46.04617547 205.4019258 45.62959909 C211.84480431 45.45289052 218.28781549 45.45381049 224.73274231 45.43527222 C235.52681438 45.38164513 246.31406316 45.22705377 257.10546875 44.98828125 C268.17454401 44.74370836 279.24225715 44.55181392 290.31347656 44.43652344 C290.99833239 44.42936712 291.68318821 44.42221079 292.38879725 44.41483761 C299.2083369 44.34454889 306.02794664 44.28211942 312.84756803 44.22037265 C316.16094178 44.1902541 319.47430821 44.15937357 322.78767395 44.12838745 C324.72544967 44.11052478 324.72544967 44.11052478 326.70237237 44.09230125 C334.34732585 44.01696716 341.99048306 43.90302096 349.63432729 43.75282979 C354.38193752 43.6607837 359.12973395 43.58344323 363.87762642 43.50754738 C366.07109495 43.46828111 368.26444723 43.42170654 370.4575882 43.36712837 C386.66165092 42.96596816 399.13765246 44.11857761 411.63110352 55.48242188 C418.91464534 63.01101744 423.58376111 72.99507342 423.60516834 83.55213928 C423.60962619 84.57333799 423.61408403 85.59453671 423.61867696 86.64668083 C423.61840042 88.3269974 423.61840042 88.3269974 423.61811829 90.04125977 C423.62179497 91.23269152 423.62547166 92.42412327 423.62925977 93.65165901 C423.63837881 96.96012926 423.6429946 100.26854994 423.64564908 103.57702804 C423.64955584 107.1450539 423.65913404 110.71306544 423.66786194 114.28108215 C423.68761755 122.89949289 423.69769217 131.51790479 423.70658973 140.13633251 C423.71097478 144.19727339 423.71634109 148.25821298 423.7215786 152.31915283 C423.73859124 165.82334116 423.75308412 179.32752868 423.76032734 192.83172607 C423.76223717 196.3355713 423.76415751 199.83941652 423.76611328 203.34326172 C423.76659702 204.21410212 423.76708076 205.08494251 423.76757916 205.98217201 C423.77587459 220.08057908 423.80120309 234.17890117 423.83369396 248.27727115 C423.86679706 262.75969636 423.8847791 277.24207843 423.88797158 291.72454166 C423.89013385 299.85263908 423.89884075 307.98061262 423.92443275 316.1086731 C423.94618436 323.03294435 423.95416839 329.95706166 423.94446597 336.88136321 C423.93993389 340.41101247 423.94174303 343.94034439 423.96122742 347.46994972 C423.98222001 351.30610558 423.97183302 355.14182902 423.95869446 358.97802734 C423.97514833 360.63157526 423.97514833 360.63157526 423.9919346 362.31852818 C423.88895283 374.82459874 419.92336244 385.26964153 411.47094727 394.51757812 C399.76605105 405.21560154 387.26499938 407.11953792 371.9230957 407.0255127 C370.27136563 407.03012915 368.61963968 407.03648705 366.96792221 407.04442167 C362.45745894 407.06103591 357.94733657 407.05290483 353.43687248 407.0404768 C348.56152983 407.03139609 343.68624426 407.04541098 338.81091309 407.05639648 C329.2713362 407.07415411 319.73188542 407.070354 310.19230366 407.05874592 C302.4371519 407.04970102 294.68203541 407.04849217 286.92687988 407.05284119 C285.82182594 407.05345412 284.716772 407.05406705 283.57823157 407.05469856 C281.33311875 407.0559775 279.08800593 407.05727435 276.84289312 407.05858892 C255.80574522 407.06998665 234.76866712 407.05689368 213.73153067 407.03538746 C195.69281167 407.01751722 177.65419565 407.02062156 159.61547852 407.0390625 C138.65201752 407.06048346 117.68861766 407.06888809 96.72514725 407.05661345 C94.48843639 407.05533929 92.25172552 407.05408181 90.01501465 407.05284119 C88.36439108 407.05191553 88.36439108 407.05191553 86.68042159 407.05097118 C78.93736408 407.04752196 71.19434544 407.05333739 63.45129395 407.0627594 C54.01110955 407.07399437 44.57105815 407.07090781 35.13088894 407.04963642 C30.31721111 407.03914622 25.50375477 407.03496953 20.69007874 407.04823303 C16.27836677 407.06020485 11.86708035 407.05351591 7.45540667 407.03232282 C5.86471871 407.02787698 4.27399435 407.03007734 2.68333006 407.03982598 C-11.84716677 407.1220051 -23.56866973 404.53513249 -34.52905273 394.51757812 C-44.52299747 383.58302683 -47.13933195 371.89988361 -47.0369873 357.39941406 C-47.04160652 356.01167016 -47.04796624 354.62393117 -47.05589628 353.23620224 C-47.07247295 349.45541733 -47.06439705 345.67504036 -47.05195141 341.89425468 C-47.04285499 337.8041913 -47.05689328 333.71419526 -47.06787109 329.62414551 C-47.08561215 321.62462273 -47.08183608 313.62525049 -47.07022053 305.62572193 C-47.06116906 299.12152183 -47.05996961 292.61736378 -47.0643158 286.11315918 C-47.06492873 285.18572836 -47.06554166 284.25829753 -47.06617317 283.30276275 C-47.06745213 281.41841792 -47.06874898 279.5340731 -47.07006353 277.6497283 C-47.0814564 260.00042308 -47.06837594 242.35120111 -47.04686207 224.70190954 C-47.02899226 209.57401782 -47.03209673 194.44624889 -47.05053711 179.31835938 C-47.07196669 161.7301087 -47.08035789 144.14193089 -47.06808805 126.55366898 C-47.06681392 124.67644502 -47.06555644 122.79922105 -47.0643158 120.92199707 C-47.06369869 119.99848442 -47.06308159 119.07497177 -47.06244579 118.12347388 C-47.05899915 111.63075997 -47.06480641 105.13809247 -47.07423401 98.64538574 C-47.08547859 90.72766045 -47.08236239 82.81009368 -47.06111103 74.89238644 C-47.0506336 70.85639667 -47.04642192 66.82067075 -47.05970764 62.78468323 C-47.07170653 59.08350443 -47.0649472 55.38283178 -47.04379743 51.68169832 C-47.03727683 49.72272321 -47.05020013 47.76371241 -47.06402636 45.80477524 C-46.94968558 32.7942578 -43.36761491 22.18800498 -34.52905273 12.51757812 C-24.53467318 3.38293014 -13.38380468 -0.10912425 0 0 Z " fill="#3747D6" transform="translate(67.529052734375,52.482421875)"/>
<path d="M0 0 C1.13979309 -0.00686325 2.27958618 -0.0137265 3.45391846 -0.02079773 C7.19035601 -0.03897295 10.92636988 -0.03524079 14.6628418 -0.02954102 C17.28159215 -0.0341077 19.90034131 -0.03941472 22.51908875 -0.04542542 C27.99697864 -0.05542122 33.47475022 -0.052191 38.95263672 -0.04199219 C45.24944137 -0.03052642 51.5458193 -0.04457295 57.84256774 -0.07138866 C63.9417431 -0.09637296 70.04072428 -0.0986969 76.13994408 -0.0922718 C78.71571753 -0.0921193 81.29149948 -0.09810478 83.86724281 -0.11056328 C102.96625126 -0.1899281 119.63807565 0.07268123 134.51831055 13.65795898 C145.64159248 25.20763339 149.61348477 37.90878891 149.36206055 53.62280273 C148.56189369 63.30482167 144.51458837 71.50247598 139.04956055 79.40405273 C138.60999023 80.04084961 138.17041992 80.67764648 137.7175293 81.33374023 C130.23563059 91.03649072 117.86377875 96.34124801 106.04956055 98.40405273 C104.39501249 98.49421714 102.73752858 98.53865391 101.08053589 98.54449463 C100.1051033 98.55020477 99.12967072 98.55591492 98.12467957 98.5617981 C96.53651176 98.56347488 96.53651176 98.56347488 94.91625977 98.56518555 C93.7920311 98.57015045 92.66780243 98.57511536 91.50950623 98.58023071 C87.79108059 98.59483196 84.07269764 98.60165172 80.35424805 98.60717773 C77.76457722 98.61293177 75.1749064 98.61868947 72.5852356 98.62445068 C67.84699591 98.63361362 63.10877321 98.63991564 58.37052619 98.64294744 C51.42085826 98.64741986 44.47138782 98.66493369 37.52177989 98.69394803 C31.48244447 98.7182768 25.44320156 98.72589702 19.40381241 98.72762299 C16.8450933 98.73064063 14.28637484 98.73863896 11.72768784 98.75180817 C8.13805157 98.76896161 4.54888972 98.76696524 0.95922852 98.76049805 C-0.08740463 98.76971283 -1.13403778 98.77892761 -2.21238708 98.78842163 C-16.06765526 98.7106648 -28.69003548 94.26356301 -38.84887695 84.69702148 C-45.35791553 77.59515226 -49.08960225 69.50951307 -51.95043945 60.40405273 C-52.44543945 58.91905273 -52.44543945 58.91905273 -52.95043945 57.40405273 C-53.93516441 41.95144568 -51.03825709 28.38073873 -40.95043945 16.27905273 C-29.55028822 4.25397627 -16.16714721 -0.06923434 0 0 Z " fill="#8FC9E9" transform="translate(207.950439453125,301.595947265625)"/>
<path d="M0 0 C12.3641719 11.04777085 19.85984879 23.57239021 23.8984375 39.58984375 C24.0735083 40.19876465 24.2485791 40.80768555 24.42895508 41.43505859 C28.57913628 60.48316014 23.45860953 79.23002195 13.8984375 95.58984375 C11.7769569 98.82279571 9.49507538 101.72836032 6.8984375 104.58984375 C6.30675781 105.26144531 5.71507812 105.93304688 5.10546875 106.625 C-7.82985954 120.46713481 -26.4124544 128.24342097 -45.25561523 128.99462891 C-64.47154148 129.2858781 -81.80702603 122.5123043 -96.1015625 109.58984375 C-96.80925781 108.96335937 -97.51695312 108.336875 -98.24609375 107.69140625 C-110.81563167 95.91497493 -118.74260803 79.06852854 -119.4375 61.890625 C-119.79032974 38.57879751 -114.34578545 20.45554239 -97.86328125 3.25390625 C-71.2191222 -22.30006626 -28.20674525 -23.69242556 0 0 Z " fill="#8FC9E9" transform="translate(303.1015625,171.41015625)"/>
</svg>
