<?xml version="1.0" encoding="UTF-8"?>
<svg version="1.1" xmlns="http://www.w3.org/2000/svg" width="500" height="500">
<path d="M0 0 C2.41193071 1.26379527 4.64984486 2.54515824 6.9375 4 C8.26412602 4.82063089 9.59095485 5.64093399 10.91796875 6.4609375 C11.59263184 6.88213867 12.26729492 7.30333984 12.96240234 7.73730469 C16.19914749 9.74310937 19.47633515 11.68026544 22.75 13.625 C24.49153598 14.66276459 26.23249079 15.70360625 27.93041992 16.8112793 C30.06814716 18.11843206 30.06814716 18.11843206 32.8762207 19.04223633 C36.53112771 20.64307795 38.49457451 21.86017219 41 25 C42.89355695 32.22813093 42.02532441 40.05461696 41.6875 47.4375 C41.63229046 49.52526249 41.58210601 51.61316431 41.53710938 53.70117188 C41.416201 58.80422935 41.22661942 63.90058774 41 69 C39.68 69.33 38.36 69.66 37 70 C37 69.34 37 68.68 37 68 C36.20916016 67.86271484 36.20916016 67.86271484 35.40234375 67.72265625 C32.15251864 66.74506658 29.49759039 65.13991905 26.5625 63.4375 C25.94995361 63.08324951 25.33740723 62.72899902 24.70629883 62.36401367 C20.49185841 59.91239863 16.33339156 57.37807525 12.1875 54.8125 C11.12402344 54.1628125 10.06054688 53.513125 8.96484375 52.84375 C7.11920819 51.69600298 5.29398436 50.51385464 3.50390625 49.28125 C-0.63679625 46.56751606 -0.63679625 46.56751606 -5.4453125 46.2265625 C-9.84879583 47.51504155 -12.62013077 48.94022307 -15 53 C-15.66 53 -16.32 53 -17 53 C-17.22978763 58.62979696 -17.26116721 63.72394317 -15 69 C-13.3442943 69.69344132 -11.67452789 70.35333273 -10 71 C-7.45182758 72.52281654 -5.01222261 74.19951674 -2.5625 75.875 C-1.59860352 76.52662109 -1.59860352 76.52662109 -0.61523438 77.19140625 C0.6507637 78.04740089 1.91560887 78.90510356 3.17919922 79.76464844 C5.77537948 81.52606868 8.38712279 83.26346646 11 85 C10.1875 86.9375 10.1875 86.9375 9 89 C7.515 89.495 7.515 89.495 6 90 C6 90.66 6 91.32 6 92 C4.59321977 93.24814331 3.12120296 94.4230839 1.625 95.5625 C-2.99884653 99.16319751 -7.36188519 102.95736887 -11.67578125 106.921875 C-18.47368421 113 -18.47368421 113 -23 113 C-23 112.34 -23 111.68 -23 111 C-23.54140625 110.90976563 -24.0828125 110.81953125 -24.640625 110.7265625 C-36.97575739 106.92799524 -47.02084556 95.94605758 -53.3046875 85.2265625 C-59.28664908 73.84153885 -61.00247489 60.72013423 -57.75 48.1875 C-57.19888257 46.44779752 -56.6169973 44.71744271 -56 43 C-55.73316406 42.24332031 -55.46632812 41.48664063 -55.19140625 40.70703125 C-52.58855602 34.17098511 -48.5885203 28.31354623 -44 23 C-43.34 23 -42.68 23 -42 23 C-42 22.34 -42 21.68 -42 21 C-41.34 21 -40.68 21 -40 21 C-40 20.34 -40 19.68 -40 19 C-38.11355511 17.57891982 -36.24744621 16.31281401 -34.25 15.0625 C-33.33444336 14.48556396 -33.33444336 14.48556396 -32.40039062 13.89697266 C-26.8355682 10.4402456 -21.19117927 7.11880474 -15.5 3.875 C-14.65211914 3.37750244 -13.80423828 2.88000488 -12.93066406 2.36743164 C-5.22123941 -1.9391123 -5.22123941 -1.9391123 0 0 Z " fill="#31AE93" transform="translate(254,143)"/>
<path d="M0 0 C12.51156216 7.53331213 20.94481571 17.76548727 26.3125 31.3125 C28.82870236 44.80849446 28.81230172 59.13226777 21 71 C17.1418607 76.46726569 12.95949065 81.50185732 8 86 C7.34 86 6.68 86 6 86 C6 86.66 6 87.32 6 88 C1.93232485 90.33182515 -2.13875334 92.65751337 -6.21289062 94.97802734 C-7.75523094 95.86002687 -9.29220141 96.75140441 -10.828125 97.64453125 C-11.60671875 98.09183594 -12.3853125 98.53914063 -13.1875 99 C-14.19876953 99.5878125 -14.19876953 99.5878125 -15.23046875 100.1875 C-17 101 -17 101 -20 101 C-20 101.66 -20 102.32 -20 103 C-22.97 103.495 -22.97 103.495 -26 104 C-27.57159917 72.68505048 -27.57159917 72.68505048 -26 60 C-24.741875 59.62875 -23.48375 59.2575 -22.1875 58.875 C-18.96053875 57.65275273 -18.11063645 57.15212512 -16 54.25 C-14.39841326 49.04484308 -14.25904094 45.6244824 -16.54296875 40.6171875 C-19.08444076 36.34703873 -22.583288 34.11845093 -26.75 31.5625 C-27.44738281 31.11712891 -28.14476562 30.67175781 -28.86328125 30.21289062 C-30.56664755 29.12786963 -32.28213381 28.0619148 -34 27 C-33.29822123 23.76513406 -32.63523506 22.10818805 -30 20 C-29.34 20 -28.68 20 -28 20 C-28 19.34 -28 18.68 -28 18 C-26.30096977 16.48259024 -24.53927277 15.034872 -22.75 13.625 C-19.94686688 11.40770687 -17.26298803 9.2694248 -14.765625 6.7109375 C-13 5 -13 5 -11 5 C-10.67 4.01 -10.34 3.02 -10 2 C-6.636196 -1.48838933 -4.5409114 -1.17096141 0 0 Z " fill="#2B82A9" transform="translate(276,235)"/>
<path d="M0 0 C4.81617973 0.96323595 7.07588541 2.04829071 11.125 4.625 C11.68614502 4.97965332 12.24729004 5.33430664 12.82543945 5.69970703 C13.98318769 6.43261597 15.13886887 7.16880014 16.29248047 7.90820312 C17.9291055 8.95466969 19.5756846 9.9855191 21.22265625 11.015625 C28.71333922 15.71333922 28.71333922 15.71333922 31 18 C31.25560438 20.42357427 31.38743335 22.73872178 31.43334961 25.16845703 C31.45452347 25.90692368 31.47569733 26.64539032 31.49751282 27.40623474 C31.70282491 35.13870498 31.7883218 42.87473018 31.86499023 50.609375 C31.90503907 54.27737743 31.98152019 57.9418103 32.09057617 61.60839844 C32.22216409 66.03970348 32.28933078 70.46768298 32.3112812 74.90084457 C32.33019805 76.58603461 32.3713571 78.27113352 32.43562126 79.95520401 C32.62677124 85.24461889 32.59981657 89.92133353 31 95 C27.05332724 98.85904815 23.07869607 100.81383002 18 103 C16.58774385 103.81818946 15.18713679 104.65745339 13.80859375 105.53125 C12.69613281 106.1809375 11.58367187 106.830625 10.4375 107.5 C9.30183594 108.1703125 8.16617188 108.840625 6.99609375 109.53125 C4 111 4 111 0 111 C1.86831238 106.27273518 3.87167612 101.60713923 5.87890625 96.9375 C7.94791196 91.5162725 8.18243169 86.45017264 8.1875 80.6875 C8.20586914 79.6056543 8.20586914 79.6056543 8.22460938 78.50195312 C8.24361626 71.4377272 6.67727047 65.24472103 4 58.6875 C3.67 57.86636719 3.34 57.04523438 3 56.19921875 C1.97461202 53.78799588 1.97461202 53.78799588 0 51 C0.11859375 50.11570313 0.2371875 49.23140625 0.359375 48.3203125 C0.87715505 44.08487168 0.7491739 41.95152361 -1 38 C-6.92713928 33.02099231 -14.08755734 29.62137279 -20.99633789 26.21411133 C-21.65754639 25.81345459 -22.31875488 25.41279785 -23 25 C-23 24.34 -23 23.68 -23 23 C-27.02130452 22.29338739 -27.02130452 22.29338739 -31.07421875 21.81640625 C-33.92131048 21.55853657 -36.40583852 21.32583049 -38.9375 19.9375 C-40.66364319 16.78982712 -41.00719831 13.56316139 -41 10 C-39.91429716 6.56194102 -39.10612788 6.07075192 -36 4 C-32.42007594 4.15233719 -30.52428743 4.58907201 -27.6875 6.8125 C-26 9 -26 9 -25.625 11.125 C-25.41875 11.74375 -25.2125 12.3625 -25 13 C-22.00384054 14.3045656 -22.00384054 14.3045656 -19 15 C-19 15.66 -19 16.32 -19 17 C-18.41573242 17.12238037 -17.83146484 17.24476074 -17.22949219 17.37084961 C-14.96572015 18.00967358 -13.32785985 18.84243061 -11.328125 20.06640625 C-10.7290332 20.42935791 -10.12994141 20.79230957 -9.51269531 21.16625977 C-8.76600586 21.62701904 -8.01931641 22.08777832 -7.25 22.5625 C-3.66125 24.7590625 -3.66125 24.7590625 0 27 C0 18.09 0 9.18 0 0 Z " fill="#34C287" transform="translate(301,201)"/>
<path d="M0 0 C9.06911653 5.0780563 18.01581759 10.35527642 26.9375 15.6875 C28.01507568 16.32888916 29.09265137 16.97027832 30.20288086 17.63110352 C33.14999787 19.39790578 36.07814308 21.19181143 39 23 C39.75692139 23.45028564 40.51384277 23.90057129 41.29370117 24.36450195 C44.32891889 26.29481914 45.83873762 27.317169 46.68359375 30.89453125 C46.60238281 31.85746094 46.52117187 32.82039063 46.4375 33.8125 C46.37433594 34.78832031 46.31117188 35.76414062 46.24609375 36.76953125 C46.16488281 37.50558594 46.08367187 38.24164063 46 39 C43.62392051 39.83583327 42.45550373 40.1842383 40.078125 39.22265625 C38.38541667 38.1484375 36.69270833 37.07421875 35 36 C35 35.34 35 34.68 35 34 C34.42113037 33.87995605 33.84226074 33.75991211 33.24584961 33.63623047 C30.89890245 32.97135991 29.15552587 32.07046618 27.06640625 30.8203125 C26.33486328 30.38589844 25.60332031 29.95148438 24.84960938 29.50390625 C24.09486328 29.04886719 23.34011719 28.59382813 22.5625 28.125 C21.81162109 27.67769531 21.06074219 27.23039062 20.28710938 26.76953125 C18.18835254 25.51802981 16.09352819 24.26022291 14 23 C12.99839844 22.39929688 11.99679688 21.79859375 10.96484375 21.1796875 C9.99224609 20.59574219 9.99224609 20.59574219 9 20 C12.47736026 23.78034623 12.47736026 23.78034623 17 26 C17 26.66 17 27.32 17 28 C17.58031982 28.12076904 18.16063965 28.24153809 18.75854492 28.3659668 C21.08194401 29.02317924 22.79767716 29.90444827 24.86328125 31.14453125 C25.94706055 31.78938477 25.94706055 31.78938477 27.05273438 32.44726562 C27.79845703 32.89779297 28.54417969 33.34832031 29.3125 33.8125 C30.78752382 34.69440625 32.26278175 35.57592108 33.73828125 36.45703125 C34.45064941 36.88838379 35.16301758 37.31973633 35.89697266 37.76416016 C37.26739706 38.56948734 38.65771982 39.34213855 40.06787109 40.07568359 C44.76232823 42.52658092 44.76232823 42.52658092 45.96484375 44.921875 C46.00688857 47.40719108 45.85494481 49.78046606 45.5625 52.25 C45.46066406 53.14203125 45.35882813 54.0340625 45.25390625 54.953125 C45.17011719 55.62859375 45.08632812 56.3040625 45 57 C41.20950293 55.57250019 37.72877544 53.83763458 34.1875 51.875 C33.21167969 51.33617187 32.23585937 50.79734375 31.23046875 50.2421875 C30.49441406 49.83226562 29.75835937 49.42234375 29 49 C29 48.34 29 47.68 29 47 C28.40977051 46.87761963 27.81954102 46.75523926 27.21142578 46.62915039 C23.70086929 45.63039746 20.87399756 43.45641279 17.875 41.4375 C13.76612872 38.28217371 13.76612872 38.28217371 9 37 C9 37.66 9 38.32 9 39 C9.66 39 10.32 39 11 39 C11 39.66 11 40.32 11 41 C11.78697266 41.13535156 11.78697266 41.13535156 12.58984375 41.2734375 C15.85074789 42.25646533 18.64064142 43.91570277 21.5625 45.625 C22.17730225 45.98037842 22.79210449 46.33575684 23.42553711 46.7019043 C28.22807685 49.49867379 32.93499806 52.43241014 37.59765625 55.45703125 C39.27665586 56.53541312 40.99798859 57.54939059 42.74609375 58.51171875 C45 60 45 60 46 63 C45.91538508 64.73324119 45.76395645 66.46392812 45.5625 68.1875 C45.40974609 69.53908203 45.40974609 69.53908203 45.25390625 70.91796875 C45.17011719 71.60503906 45.08632812 72.29210937 45 73 C39.86475129 72.46423586 36.06929613 69.93272752 31.75 67.3125 C30.98929199 66.85842773 30.22858398 66.40435547 29.44482422 65.93652344 C24.9088868 63.2116593 20.48055978 60.37088227 16.12109375 57.37109375 C12.69583961 55.15697919 9.09133835 53.28593914 5.48046875 51.39453125 C3.08424172 50.04736109 1.04525685 48.83785767 -1 47 C-1.53244019 44.94432068 -1.53244019 44.94432068 -1.57763672 42.56030273 C-1.60381073 41.66605087 -1.62998474 40.77179901 -1.6569519 39.85044861 C-1.66445465 38.88788651 -1.6719574 37.9253244 -1.6796875 36.93359375 C-1.7009671 35.94375992 -1.7222467 34.95392609 -1.74417114 33.93409729 C-1.78506088 31.84204989 -1.81638115 29.74979684 -1.83886719 27.6574707 C-1.87490525 24.44594337 -1.94281252 21.23627322 -2.015625 18.02539062 C-2.0513619 15.99482393 -2.08527811 13.9642242 -2.1171875 11.93359375 C-2.13683563 10.96900742 -2.15648376 10.00442108 -2.17672729 9.01060486 C-2.18398834 8.11950516 -2.19124939 7.22840546 -2.19873047 6.31030273 C-2.20887177 5.52437241 -2.21901306 4.73844208 -2.22946167 3.92869568 C-2 2 -2 2 0 0 Z " fill="#294DB2" transform="translate(198,261)"/>
<path d="M0 0 C4.4315254 0.41720446 7.13663471 2.09454705 10.83984375 4.4453125 C11.46955078 4.82429687 12.09925781 5.20328125 12.74804688 5.59375 C14.675077 6.78205223 16.5393772 8.03416809 18.40234375 9.3203125 C19.06484131 9.75029541 19.72733887 10.18027832 20.40991211 10.62329102 C23.19792715 12.64852384 25.07431903 14.13738397 26.01489258 17.52929688 C26.23553904 20.05998714 26.21211494 22.4711706 26.08984375 25.0078125 C26.09177734 25.86181641 26.09371094 26.71582031 26.09570312 27.59570312 C25.95880961 33.60485639 25.95880961 33.60485639 23.734375 36.46484375 C20.37125486 37.69855114 18.8531625 37.40705683 15.40234375 36.3203125 C12.20078483 34.59963137 9.21680506 32.61544429 6.21484375 30.5703125 C5.40853516 30.044375 4.60222656 29.5184375 3.77148438 28.9765625 C-1.33182559 25.54890294 -4.7655857 22.89084311 -6.21484375 16.671875 C-6.79109365 10.57759576 -6.63155892 6.68798646 -3.59765625 1.3203125 C-2.59765625 0.3203125 -2.59765625 0.3203125 0 0 Z " fill="#44DA7A" transform="translate(306.59765625,170.6796875)"/>
<path d="M0 0 C1.32 0.33 2.64 0.66 4 1 C3.01 1 2.02 1 1 1 C1.05124023 1.82725586 1.10248047 2.65451172 1.15527344 3.50683594 C1.3751792 7.25365139 1.56293716 11.00140743 1.75 14.75 C1.83121094 16.05195313 1.91242188 17.35390625 1.99609375 18.6953125 C2.08310547 20.57089844 2.08310547 20.57089844 2.171875 22.484375 C2.2661377 24.21252441 2.2661377 24.21252441 2.36230469 25.97558594 C2 29 2 29 0.23925781 31.28222656 C-3.64264243 34.26009945 -3.64264243 34.26009945 -6 35 C-8.01464844 34.34082031 -8.01464844 34.34082031 -10.109375 33.078125 C-10.86347656 32.62953125 -11.61757813 32.1809375 -12.39453125 31.71875 C-13.17183594 31.2340625 -13.94914062 30.749375 -14.75 30.25 C-15.54277344 29.78078125 -16.33554687 29.3115625 -17.15234375 28.828125 C-21.41659738 26.2446185 -21.41659738 26.2446185 -23 25 C-23 24.34 -23 23.68 -23 23 C-27.02130452 22.29338739 -27.02130452 22.29338739 -31.07421875 21.81640625 C-33.92131048 21.55853657 -36.40583852 21.32583049 -38.9375 19.9375 C-40.66364319 16.78982712 -41.00719831 13.56316139 -41 10 C-39.91429716 6.56194102 -39.10612788 6.07075192 -36 4 C-32.42007594 4.15233719 -30.52428743 4.58907201 -27.6875 6.8125 C-26 9 -26 9 -25.625 11.125 C-25.41875 11.74375 -25.2125 12.3625 -25 13 C-22.00384054 14.3045656 -22.00384054 14.3045656 -19 15 C-19 15.66 -19 16.32 -19 17 C-18.41573242 17.12238037 -17.83146484 17.24476074 -17.22949219 17.37084961 C-14.96572015 18.00967358 -13.32785985 18.84243061 -11.328125 20.06640625 C-10.7290332 20.42935791 -10.12994141 20.79230957 -9.51269531 21.16625977 C-8.76600586 21.62701904 -8.01931641 22.08777832 -7.25 22.5625 C-3.66125 24.7590625 -3.66125 24.7590625 0 27 C0 18.09 0 9.18 0 0 Z " fill="#37B27A" transform="translate(301,201)"/>
<path d="M0 0 C0.33 0 0.66 0 1 0 C1.64698209 6.72861368 -0.07616695 11.11413383 -3.00390625 17.16796875 C-4.1228614 20.34931181 -3.86508573 21.80625583 -3 25 C-3.33333333 26.66666667 -3.66666667 28.33333333 -4 30 C-3.71777382 31.67607794 -3.37524619 33.34226685 -3 35 C-2.67902344 36.48886719 -2.67902344 36.48886719 -2.3515625 38.0078125 C-2.11179688 39.03648437 -1.87203125 40.06515625 -1.625 41.125 C-1.39039063 42.15882813 -1.15578125 43.19265625 -0.9140625 44.2578125 C0.03320663 47.09961988 0.94097806 47.96398389 3 50 C3 51.32 3 52.64 3 54 C3.99 54.33 4.98 54.66 6 55 C6.71727778 56.64551962 7.38325228 58.31422289 8 60 C9.75220644 62.1366619 9.75220644 62.1366619 11.8125 62.3125 C15.07450501 63.33770158 16.6982188 65.52558521 19 68 C21.77142939 70.94464373 24.24755658 73.39180996 28 75 C32.89746887 74.00051656 36.56274223 72.06215246 39.4375 67.9375 C41 66 41 66 43.25 65.25 C46.93383288 63.57553051 48.67972244 60.98111875 51.22265625 57.8984375 C53.48951259 55.477136 56.00442422 54.35514142 59 53 C59.33 52.01 59.66 51.02 60 50 C61.485 50.495 61.485 50.495 63 51 C62.1875 52.9375 62.1875 52.9375 61 55 C59.515 55.495 59.515 55.495 58 56 C58 56.66 58 57.32 58 58 C56.59321977 59.24814331 55.12120296 60.4230839 53.625 61.5625 C49.00115347 65.16319751 44.63811481 68.95736887 40.32421875 72.921875 C33.52631579 79 33.52631579 79 29 79 C29 78.34 29 77.68 29 77 C28.45859375 76.90976563 27.9171875 76.81953125 27.359375 76.7265625 C15.02424261 72.92799524 4.97915444 61.94605758 -1.3046875 51.2265625 C-7.77246389 38.91692357 -9.065775 24.88047776 -4.93359375 11.5546875 C-3.49041151 7.60556121 -1.83877644 3.78022567 0 0 Z " fill="#2C658D" transform="translate(202,177)"/>
<path d="M0 0 C0.33 0.66 0.66 1.32 1 2 C-0.26953125 3.46484375 -1.5390625 4.9296875 -2.80859375 6.39453125 C-4.20871231 8.10712971 -4.20871231 8.10712971 -5 11 C-3.68 11 -2.36 11 -1 11 C-1 11.99 -1 12.98 -1 14 C-0.195625 14.268125 0.60875 14.53625 1.4375 14.8125 C2.283125 15.204375 3.12875 15.59625 4 16 C4.33 16.99 4.66 17.98 5 19 C5.969375 19.268125 6.93875 19.53625 7.9375 19.8125 C11 21 11 21 12.375 23.5625 C13.53655595 29.95105775 13.79456707 35.9916808 11 42 C9.0625 44.375 9.0625 44.375 7 46 C6.01 46 5.02 46 4 46 C4 47.65 4 49.3 4 51 C2.68 51 1.36 51 0 51 C0.144375 51.81984375 0.28875 52.6396875 0.4375 53.484375 C0.623125 54.56203125 0.80875 55.6396875 1 56.75 C1.185625 57.81734375 1.37125 58.8846875 1.5625 59.984375 C2.00283171 63.01951858 2 65.93882872 2 69 C1.34 69 0.68 69 0 69 C0.33 73.95 0.66 78.9 1 84 C1.99 84 2.98 84 4 84 C4.66 83.01 5.32 82.02 6 81 C8.32315031 80.2986716 10.65789079 79.63514826 13 79 C13.886875 78.443125 14.77375 77.88625 15.6875 77.3125 C18 76 18 76 20.14453125 76.41796875 C20.75683594 76.61003906 21.36914062 76.80210937 22 77 C20.41779413 77.96019364 18.83418669 78.91807798 17.25 79.875 C16.36828125 80.40867187 15.4865625 80.94234375 14.578125 81.4921875 C8.58031088 85 8.58031088 85 5 85 C5 85.66 5 86.32 5 87 C2.03 87.495 2.03 87.495 -1 88 C-2.57159917 56.68505048 -2.57159917 56.68505048 -1 44 C0.258125 43.62875 1.51625 43.2575 2.8125 42.875 C6.03946125 41.65275273 6.88936355 41.15212512 9 38.25 C10.60158674 33.04484308 10.74095906 29.6244824 8.45703125 24.6171875 C5.91555924 20.34703873 2.416712 18.11845093 -1.75 15.5625 C-2.44738281 15.11712891 -3.14476562 14.67175781 -3.86328125 14.21289062 C-5.56664755 13.12786963 -7.28213381 12.0619148 -9 11 C-8.29822123 7.76513406 -7.63523506 6.10818805 -5 4 C-4.34 4 -3.68 4 -3 4 C-3 3.34 -3 2.68 -3 2 C-2.01 1.34 -1.02 0.68 0 0 Z " fill="#2E66A2" transform="translate(251,251)"/>
<path d="M0 0 C5.25505777 2.81106951 10.50562007 5.63448797 15.625 8.6875 C16.25664062 9.06261719 16.88828125 9.43773437 17.5390625 9.82421875 C19 11 19 11 20 14 C19.91538508 15.73324119 19.76395645 17.46392812 19.5625 19.1875 C19.46066406 20.08855469 19.35882813 20.98960937 19.25390625 21.91796875 C19.17011719 22.60503906 19.08632812 23.29210937 19 24 C13.71591251 23.48215943 9.69958073 20.7375009 5.25 18.0625 C4.47011719 17.60681641 3.69023437 17.15113281 2.88671875 16.68164062 C-2.86811514 13.26376971 -2.86811514 13.26376971 -4 11 C-2.02 10.34 -0.04 9.68 2 9 C1.34 9 0.68 9 0 9 C-2.125 4.375 -2.125 4.375 -1 1 C-0.67 0.67 -0.34 0.34 0 0 Z " fill="#293FA9" transform="translate(224,310)"/>
<path d="M0 0 C4.12161242 2.3037584 8.21786604 4.64386114 12.29443359 7.02636719 C13.66964957 7.81141747 15.07506108 8.54343747 16.48828125 9.2578125 C18.375 10.3125 18.375 10.3125 21 13 C21.55760394 16.73860165 21.41349008 20.25233598 21 24 C18.62392051 24.83583327 17.45550373 25.1842383 15.078125 24.22265625 C12.5390625 22.61132812 12.5390625 22.61132812 10 21 C10 20.34 10 19.68 10 19 C9.41573242 18.87761963 8.83146484 18.75523926 8.22949219 18.62915039 C5.96572015 17.99032642 4.32785985 17.15756939 2.328125 15.93359375 C1.66425781 15.53076172 1.00039062 15.12792969 0.31640625 14.71289062 C-0.36550781 14.29201172 -1.04742187 13.87113281 -1.75 13.4375 C-2.44738281 13.01275391 -3.14476562 12.58800781 -3.86328125 12.15039062 C-5.57835717 11.10489914 -7.28956473 10.05306649 -9 9 C-7 8 -7 8 -3.6875 9.0625 C0.2562642 10.06515191 1.51698138 9.89982834 5 8 C5 7.01 5 6.02 5 5 C2.525 4.01 2.525 4.01 0 3 C0 2.01 0 1.02 0 0 Z " fill="#2C5EBA" transform="translate(223,276)"/>
<path d="M0 0 C3.58399916 1.34505239 6.79935678 2.94597676 10.08984375 4.8984375 C11.03923828 5.46046875 11.98863281 6.0225 12.96679688 6.6015625 C13.94712891 7.18679687 14.92746094 7.77203125 15.9375 8.375 C16.91396484 8.9525 17.89042969 9.53 18.89648438 10.125 C21.60772706 11.73520244 24.3155946 13.34540422 27 15 C28.08563232 15.51868652 29.17126465 16.03737305 30.28979492 16.57177734 C33.31107986 19.27871366 33.42231937 19.67111719 33.68115234 23.49316406 C33.68020487 25.33425772 33.64644249 27.17552558 33.5859375 29.015625 C33.57744781 29.98659119 33.56895813 30.95755737 33.56021118 31.95794678 C33.52664785 35.05643097 33.45136181 38.15230379 33.375 41.25 C33.34490425 43.35152489 33.31752777 45.45309061 33.29296875 47.5546875 C33.22684654 52.70412977 33.12330308 57.85162233 33 63 C32.01 63 31.02 63 30 63 C30 62.34 30 61.68 30 61 C28.515 60.505 28.515 60.505 27 60 C28.98 59.505 28.98 59.505 31 59 C30.90604205 54.40981063 30.79985709 49.82012259 30.68261719 45.23046875 C30.64447039 43.67097602 30.60959318 42.1113996 30.578125 40.55175781 C30.53216175 38.30243126 30.47422192 36.05367385 30.4140625 33.8046875 C30.40251129 33.1138205 30.39096008 32.42295349 30.37905884 31.71115112 C30.25170717 27.47949978 29.76712659 23.86735835 28 20 C24.08653524 18.36346019 22.06514926 17.64495025 18 19 C18 16.69 18 14.38 18 12 C16.68 12.33 15.36 12.66 14 13 C14 12.34 14 11.68 14 11 C12.68 11 11.36 11 10 11 C9.67 10.34 9.34 9.68 9 9 C6.69 9 4.38 9 2 9 C1.34 6.03 0.68 3.06 0 0 Z " fill="#3DCC78" transform="translate(262,149)"/>
<path d="M0 0 C2.95215167 2.19302696 4.23263284 4.34912214 5.5625 7.6875 C6.036875 8.780625 6.51125 9.87375 7 11 C7.99 11.33 8.98 11.66 10 12 C10 14 10 14 8.625 15.625 C7 17 7 17 5 17 C5 16.34 5 15.68 5 15 C4.39671875 15.04640625 3.7934375 15.0928125 3.171875 15.140625 C-3.41107383 15.43791946 -3.41107383 15.43791946 -6.4375 13.1875 C-9.33792716 9.12690198 -10.63321276 7.06570207 -10 2 C-6.95707674 -1.62810081 -4.32853814 -1.35266817 0 0 Z " fill="#37BF7E" transform="translate(271,206)"/>
<path d="M0 0 C0.66 0 1.32 0 2 0 C4.02627234 3.03940851 4.2626415 3.79482588 4.37890625 7.23828125 C4.43014648 8.46901367 4.43014648 8.46901367 4.48242188 9.72460938 C4.50884766 10.57861328 4.53527344 11.43261719 4.5625 12.3125 C4.7543143 17.64657007 5.11991339 22.72786211 6 28 C5.67 28.33 5.34 28.66 5 29 C4.90141397 30.4555937 4.87027857 31.91607919 4.875 33.375 C4.87242187 34.16648437 4.86984375 34.95796875 4.8671875 35.7734375 C4.91382334 38.17343496 4.91382334 38.17343496 6 41 C7.485 40.505 7.485 40.505 9 40 C9.66 40.33 10.32 40.66 11 41 C10.67 40.01 10.34 39.02 10 38 C11.32 38.33 12.64 38.66 14 39 C14 39.66 14 40.32 14 41 C11.42236925 42.51061151 8.83870395 44.00858405 6.25 45.5 C5.52039063 45.92925781 4.79078125 46.35851562 4.0390625 46.80078125 C3.33007812 47.20683594 2.62109375 47.61289062 1.890625 48.03125 C0.91657715 48.59682617 0.91657715 48.59682617 -0.07714844 49.17382812 C-2 50 -2 50 -6 50 C-4.13168762 45.27273518 -2.12832388 40.60713923 -0.12109375 35.9375 C1.92394908 30.57906025 2.19256489 25.57236355 2.1875 19.875 C2.18814453 19.12742432 2.18878906 18.37984863 2.18945312 17.60961914 C2.13244616 11.58696336 1.41836369 5.86341418 0 0 Z " fill="#319F8D" transform="translate(307,262)"/>
<path d="M0 0 C3.10546875 1.9609375 3.10546875 1.9609375 6.1875 4.375 C7.21230469 5.16648438 8.23710937 5.95796875 9.29296875 6.7734375 C15.25465298 11.6769873 15.25465298 11.6769873 16 16 C14.68 15.34 13.36 14.68 12 14 C12 13.34 12 12.68 12 12 C9.69 12.33 7.38 12.66 5 13 C3.95550089 9.86650268 4.06576355 9.01031744 5 6 C1.30237152 4.769686 -2.08552467 3.88362371 -6 4 C-8.30148277 5.82561227 -9.73181796 7.76157742 -11.4296875 10.1484375 C-13 12 -13 12 -16.4375 12.5 C-17.283125 12.335 -18.12875 12.17 -19 12 C-18.04882866 10.8274869 -17.08882991 9.66212985 -16.125 8.5 C-15.59132813 7.8503125 -15.05765625 7.200625 -14.5078125 6.53125 C-14.01023437 6.0259375 -13.51265625 5.520625 -13 5 C-12.34 5 -11.68 5 -11 5 C-10.67 4.01 -10.34 3.02 -10 2 C-6.63742139 -1.48711856 -4.5388583 -1.19213387 0 0 Z " fill="#319087" transform="translate(276,235)"/>
<path d="M0 0 C0.33 0.66 0.66 1.32 1 2 C-0.26953125 3.46484375 -1.5390625 4.9296875 -2.80859375 6.39453125 C-4.20871231 8.10712971 -4.20871231 8.10712971 -5 11 C-3.68 11 -2.36 11 -1 11 C-1 11.99 -1 12.98 -1 14 C-0.195625 14.268125 0.60875 14.53625 1.4375 14.8125 C2.283125 15.204375 3.12875 15.59625 4 16 C4.33 16.99 4.66 17.98 5 19 C5.969375 19.268125 6.93875 19.53625 7.9375 19.8125 C11 21 11 21 12.375 23.5625 C13.72212437 30.97168401 13.41959974 37.16080053 10 44 C7.69 44 5.38 44 3 44 C3.78375 43.443125 4.5675 42.88625 5.375 42.3125 C9.15166845 38.98543493 9.82677609 36.55901516 10.375 31.625 C9.85667032 26.61447975 8.07209984 22.79274836 4.26513672 19.49902344 C2.29983664 18.10889689 0.30181917 16.8211301 -1.75 15.5625 C-2.44738281 15.11712891 -3.14476562 14.67175781 -3.86328125 14.21289062 C-5.56664755 13.12786963 -7.28213381 12.0619148 -9 11 C-8.29822123 7.76513406 -7.63523506 6.10818805 -5 4 C-4.34 4 -3.68 4 -3 4 C-3 3.34 -3 2.68 -3 2 C-2.01 1.34 -1.02 0.68 0 0 Z " fill="#2F6D8C" transform="translate(251,251)"/>
<path d="M0 0 C1.67299959 0.65061095 3.33859237 1.32033324 5 2 C5.7425 2.28875 6.485 2.5775 7.25 2.875 C9 4 9 4 9.63671875 5.7421875 C10.06022225 8.37428453 9.8756857 10.60532076 9.5625 13.25 C9.46066406 14.14203125 9.35882813 15.0340625 9.25390625 15.953125 C9.17011719 16.62859375 9.08632812 17.3040625 9 18 C5.20950293 16.57250019 1.72877544 14.83763458 -1.8125 12.875 C-3.27623047 12.06675781 -3.27623047 12.06675781 -4.76953125 11.2421875 C-5.50558594 10.83226562 -6.24164063 10.42234375 -7 10 C-7 9.34 -7 8.68 -7 8 C-7.598125 7.896875 -8.19625 7.79375 -8.8125 7.6875 C-11.28243264 6.91123545 -12.32251235 5.92911079 -14 4 C-13.360625 4.33 -12.72125 4.66 -12.0625 5 C-7.98763159 6.33056928 -4.24809575 6.16659199 0 6 C0 6.66 0 7.32 0 8 C1.65 8.33 3.3 8.66 5 9 C6 12 6 12 5 15 C5.66 15 6.32 15 7 15 C6.90527508 9.11752831 6.90527508 9.11752831 3.5 4.6875 C2.2625 3.8521875 2.2625 3.8521875 1 3 C0.67 2.01 0.34 1.02 0 0 Z " fill="#274D9E" transform="translate(234,300)"/>
<path d="M0 0 C2.29395893 1.28773152 4.58516784 2.57996772 6.875 3.875 C7.52597656 4.23980469 8.17695313 4.60460937 8.84765625 4.98046875 C11.50393354 6.48660536 13.83019001 7.83019001 16 10 C14.88625 9.95875 13.7725 9.9175 12.625 9.875 C8.95633975 9.58878141 8.95633975 9.58878141 7 12 C7.3185177 14.10820797 7.3185177 14.10820797 8 16 C9.32 16 10.64 16 12 16 C12 17.32 12 18.64 12 20 C12.66 20 13.32 20 14 20 C14 20.66 14 21.32 14 22 C12.68 21.67 11.36 21.34 10 21 C10 20.34 10 19.68 10 19 C9.41573242 18.87761963 8.83146484 18.75523926 8.22949219 18.62915039 C5.96572015 17.99032642 4.32785985 17.15756939 2.328125 15.93359375 C1.66425781 15.53076172 1.00039062 15.12792969 0.31640625 14.71289062 C-0.36550781 14.29201172 -1.04742187 13.87113281 -1.75 13.4375 C-2.44738281 13.01275391 -3.14476562 12.58800781 -3.86328125 12.15039062 C-5.57835717 11.10489914 -7.28956473 10.05306649 -9 9 C-7 8 -7 8 -3.6875 9.0625 C0.2562642 10.06515191 1.51698138 9.89982834 5 8 C5 7.01 5 6.02 5 5 C2.525 4.01 2.525 4.01 0 3 C0 2.01 0 1.02 0 0 Z " fill="#2C5AA8" transform="translate(223,276)"/>
<path d="M0 0 C1.32 0.33 2.64 0.66 4 1 C3.01 1 2.02 1 1 1 C1.05124023 1.82725586 1.10248047 2.65451172 1.15527344 3.50683594 C1.3751792 7.25365139 1.56293716 11.00140743 1.75 14.75 C1.83121094 16.05195313 1.91242188 17.35390625 1.99609375 18.6953125 C2.08310547 20.57089844 2.08310547 20.57089844 2.171875 22.484375 C2.2347168 23.63647461 2.29755859 24.78857422 2.36230469 25.97558594 C1.91764233 29.68749787 0.87290981 30.70938287 -2 33 C-3.9375 34.4375 -3.9375 34.4375 -6 35 C-8.75 33.625 -8.75 33.625 -11 32 C-10.01 31.67 -9.02 31.34 -8 31 C-8.33 29.88625 -8.66 28.7725 -9 27.625 C-10 24 -10 24 -10 22 C-6.29570676 23.37588035 -3.46848532 24.91890881 0 27 C0 18.09 0 9.18 0 0 Z " fill="#3AA370" transform="translate(301,201)"/>
<path d="M0 0 C3.5625 0.25 3.5625 0.25 6.5625 2.25 C6.5625 2.91 6.5625 3.57 6.5625 4.25 C7.18125 4.53875 7.8 4.8275 8.4375 5.125 C10.5625 6.25 10.5625 6.25 12.5625 8.25 C12.83241906 10.93839385 12.64987357 13.54141936 12.5625 16.25 C11.9025 16.25 11.2425 16.25 10.5625 16.25 C10.5625 14.6 10.5625 12.95 10.5625 11.25 C5.59256806 8.81574762 2.21644631 7.90384002 -3.4375 8.25 C-4.0975 6.27 -4.7575 4.29 -5.4375 2.25 C-3.4375 0.25 -3.4375 0.25 0 0 Z " fill="#2A55BA" transform="translate(228.4375,298.75)"/>
<path d="M0 0 C2.16874252 0.50603992 3.99967627 0.99983813 6 2 C6 16.52 6 31.04 6 46 C5.01 46 4.02 46 3 46 C3 45.34 3 44.68 3 44 C2.01 43.67 1.02 43.34 0 43 C1.98 42.505 1.98 42.505 4 42 C3.90604205 37.40981063 3.79985709 32.82012259 3.68261719 28.23046875 C3.64447039 26.67097602 3.60959318 25.1113996 3.578125 23.55175781 C3.53216175 21.30243126 3.47422192 19.05367385 3.4140625 16.8046875 C3.39673569 15.76838699 3.39673569 15.76838699 3.37905884 14.71115112 C3.25098583 10.45553121 2.52315607 6.96680637 1 3 C0.67 2.01 0.34 1.02 0 0 Z " fill="#36835D" transform="translate(289,166)"/>
<path d="M0 0 C0.99 0.33 1.98 0.66 3 1 C2.1875 2.9375 2.1875 2.9375 1 5 C0.01 5.33 -0.98 5.66 -2 6 C-2 6.66 -2 7.32 -2 8 C-3.40678023 9.24814331 -4.87879704 10.4230839 -6.375 11.5625 C-11.11068268 15.24580875 -15.56023739 19.14813038 -19.96875 23.21484375 C-23.37259927 26.20630359 -25.54613989 26.09682305 -30 26 C-27.76152748 22.64229123 -27.59041601 22.7854035 -24 22 C-21.97671478 20.11219242 -21.97671478 20.11219242 -20.6875 18 C-19 16 -19 16 -16.75 15.25 C-13.06616712 13.57553051 -11.32027756 10.98111875 -8.77734375 7.8984375 C-6.51048741 5.477136 -3.99557578 4.35514142 -1 3 C-0.67 2.01 -0.34 1.02 0 0 Z " fill="#2D7395" transform="translate(262,227)"/>
<path d="M0 0 C0.33 0 0.66 0 1 0 C1.64698209 6.72861368 -0.07616695 11.11413383 -3.00390625 17.16796875 C-4.1228614 20.34931181 -3.86508573 21.80625583 -3 25 C-3.33333333 26.66666667 -3.66666667 28.33333333 -4 30 C-3.72057545 31.67654729 -3.37668344 33.34259285 -3 35 C-2.62116985 37.99528372 -2.3075345 40.99663119 -2 44 C-4 42 -4 42 -4.125 38.875 C-4.08375 37.92625 -4.0425 36.9775 -4 36 C-4.66 36 -5.32 36 -6 36 C-9.43494082 29.13011837 -7.11633796 18.5937765 -4.93359375 11.5546875 C-3.49041151 7.60556121 -1.83877644 3.78022567 0 0 Z " fill="#2E778A" transform="translate(202,177)"/>
<path d="M0 0 C0.66 0 1.32 0 2 0 C10.05023372 13.99930581 12.94308664 27.03212847 9 43 C8.67 43 8.34 43 8 43 C7.92652344 41.42025391 7.92652344 41.42025391 7.8515625 39.80859375 C7.49393012 19.15984921 7.49393012 19.15984921 -1 1 C-0.67 0.67 -0.34 0.34 0 0 Z " fill="#2D737D" transform="translate(293,252)"/>
<path d="M0 0 C2.0625 0.4375 2.0625 0.4375 4 1 C0.32957405 6.92914961 -3.50681949 12.59696098 -9 17 C-9.66 17 -10.32 17 -11 17 C-11 17.66 -11 18.32 -11 19 C-16.14209827 23.09030544 -16.14209827 23.09030544 -19.375 22.75 C-19.91125 22.5025 -20.4475 22.255 -21 22 C-19.21492706 19.12404915 -18.03424947 18.01677525 -14.9375 16.5 C-11.85869207 14.92784276 -11.0991783 14.18761706 -10 11 C-8.35 11 -6.7 11 -5 11 C-4.896875 10.360625 -4.79375 9.72125 -4.6875 9.0625 C-4.3471875 8.0415625 -4.3471875 8.0415625 -4 7 C-3.01 6.67 -2.02 6.34 -1 6 C-1.020625 5.195625 -1.04125 4.39125 -1.0625 3.5625 C-1 1 -1 1 0 0 Z " fill="#2F6598" transform="translate(293,304)"/>
<path d="M0 0 C0.66 0 1.32 0 2 0 C4.02627234 3.03940851 4.2626415 3.79482588 4.37890625 7.23828125 C4.41306641 8.05876953 4.44722656 8.87925781 4.48242188 9.72460938 C4.50884766 10.57861328 4.53527344 11.43261719 4.5625 12.3125 C4.7543143 17.64657007 5.11991339 22.72786211 6 28 C5.67 28.33 5.34 28.66 5 29 C4.92794489 30.68608966 4.91613932 32.37500659 4.9375 34.0625 C4.95103516 35.44115234 4.95103516 35.44115234 4.96484375 36.84765625 C4.97644531 37.55792969 4.98804688 38.26820313 5 39 C4.01 39.495 4.01 39.495 3 40 C2.34 39.67 1.68 39.34 1 39 C1 39.66 1 40.32 1 41 C0.34 41 -0.32 41 -1 41 C-0.44807859 38.05641915 0.21745924 35.22063274 1.0234375 32.33203125 C2.09105445 28.07032237 2.30644879 24.06580907 2.25 19.6875 C2.24613281 18.95345947 2.24226563 18.21941895 2.23828125 17.46313477 C2.14427316 11.50341332 1.40322069 5.8008141 0 0 Z " fill="#349283" transform="translate(307,262)"/>
<path d="M0 0 C1.32 0.33 2.64 0.66 4 1 C2.37660195 2.70884005 0.70680947 4.37446717 -1 6 C-1.66 6 -2.32 6 -3 6 C-3.2358396 11.77807024 -2.86783046 16.51324804 -1 22 C-1.66 22.33 -2.32 22.66 -3 23 C-6 18.375 -6 18.375 -6 15 C-6.66 15 -7.32 15 -8 15 C-7.67 12.03 -7.34 9.06 -7 6 C-6.01 5.67 -5.02 5.34 -4 5 C-2.61423077 3.37667033 -1.27358732 1.71275535 0 0 Z " fill="#328783" transform="translate(240,190)"/>
<path d="M0 0 C7.06822355 0.83155571 11.04469769 1.88484923 16 7 C18.13309192 8.23512079 18.13309192 8.23512079 20 9 C20 9.99 20 10.98 20 12 C14.91563242 10.56855497 10.98088786 8.31565973 6.625 5.4375 C5.98433594 5.02564453 5.34367187 4.61378906 4.68359375 4.18945312 C3.10093036 3.15852846 1.54737905 2.08316534 0 1 C0 0.67 0 0.34 0 0 Z " fill="#38A879" transform="translate(267,197)"/>
<path d="M0 0 C0.33 0.66 0.66 1.32 1 2 C-1.31 2 -3.62 2 -6 2 C-6.33 3.32 -6.66 4.64 -7 6 C-10.96 6 -14.92 6 -19 6 C-18.01 5.67 -17.02 5.34 -16 5 C-16 4.01 -16 3.02 -16 2 C-10.78812498 -1.47458335 -6.02576767 -1.29967538 0 0 Z " fill="#3BC57A" transform="translate(255,145)"/>
<path d="M0 0 C0.33 0 0.66 0 1 0 C1 11.55 1 23.1 1 35 C-6 39 -6 39 -8 39 C-8 37.68 -8 36.36 -8 35 C-5.36 34.34 -2.72 33.68 0 33 C0 22.11 0 11.22 0 0 Z " fill="#42A98E" transform="translate(330,262)"/>
<path d="M0 0 C4.04015231 0.52974025 6.21717871 1.60958484 9.25 4.3125 C9.93578125 4.90675781 10.6215625 5.50101563 11.328125 6.11328125 C13.10450969 8.11793968 13.60727845 9.38378142 14 12 C12.68 11.34 11.36 10.68 10 10 C10 9.34 10 8.68 10 8 C7.69 8.33 5.38 8.66 3 9 C1.95550089 5.86650268 2.06576355 5.01031744 3 2 C2.01 1.67 1.02 1.34 0 1 C0 0.67 0 0.34 0 0 Z " fill="#33998B" transform="translate(278,239)"/>
<path d="M0 0 C2.31 0.33 4.62 0.66 7 1 C7 1.66 7 2.32 7 3 C8.07314453 3.14115234 8.07314453 3.14115234 9.16796875 3.28515625 C12.4695953 4.11853233 14.54650916 5.46647541 17.3125 7.4375 C18.19550781 8.05496094 19.07851562 8.67242187 19.98828125 9.30859375 C20.65214844 9.86675781 21.31601563 10.42492187 22 11 C22 11.66 22 12.32 22 13 C17.03173365 11.72608555 13.4144873 9.4056963 9.2578125 6.53125 C6.26346926 4.50048434 3.16466753 2.75066714 0 1 C0 0.67 0 0.34 0 0 Z " fill="#24348D" transform="translate(198,308)"/>
<path d="M0 0 C0.66 0 1.32 0 2 0 C2.33 2.64 2.66 5.28 3 8 C3.66 8 4.32 8 5 8 C5.28875 8.61875 5.5775 9.2375 5.875 9.875 C6.93720042 12.13325765 6.93720042 12.13325765 9 14 C9 15.32 9 16.64 9 18 C9.99 18.33 10.98 18.66 12 19 C12.6875 21.0625 12.6875 21.0625 13 23 C10.19408113 22.6606232 9.21410857 22.2638404 7.40234375 20.03125 C0 7.24 0 7.24 0 0 Z " fill="#2C6685" transform="translate(196,213)"/>
<path d="M0 0 C2.47253678 3.03447696 3.47426795 5.18566987 5 9 C8.63 9.33 12.26 9.66 16 10 C16 10.66 16 11.32 16 12 C18.475 12.495 18.475 12.495 21 13 C21.33 13.99 21.66 14.98 22 16 C20.68 15.67 19.36 15.34 18 15 C18 14.34 18 13.68 18 13 C13.97869548 12.29338739 13.97869548 12.29338739 9.92578125 11.81640625 C7.07868952 11.55853657 4.59416148 11.32583049 2.0625 9.9375 C0.3273813 6.77346001 0.29311219 3.57596878 0 0 Z " fill="#369575" transform="translate(260,211)"/>
<path d="M0 0 C1.98 0.66 3.96 1.32 6 2 C6 2.66 6 3.32 6 4 C6.556875 4.0825 7.11375 4.165 7.6875 4.25 C10.69714206 5.22610013 12.62154752 6.95188814 15 9 C14.34 9 13.68 9 13 9 C13 9.66 13 10.32 13 11 C10.69 10.67 8.38 10.34 6 10 C5.67 8.02 5.34 6.04 5 4 C4.360625 3.896875 3.72125 3.79375 3.0625 3.6875 C2.381875 3.460625 1.70125 3.23375 1 3 C0.67 2.01 0.34 1.02 0 0 Z " fill="#37A875" transform="translate(276,214)"/>
<path d="M0 0 C-1.58220587 0.96019364 -3.16581331 1.91807798 -4.75 2.875 C-5.63171875 3.40867187 -6.5134375 3.94234375 -7.421875 4.4921875 C-13.41968912 8 -13.41968912 8 -17 8 C-17 8.66 -17 9.32 -17 10 C-18.98 10.33 -20.96 10.66 -23 11 C-22.34 10.34 -21.68 9.68 -21 9 C-20.01 9 -19.02 9 -18 9 C-17.67 7.35 -17.34 5.7 -17 4 C-16.484375 3.896875 -15.96875 3.79375 -15.4375 3.6875 C-1.14537445 -0.34361233 -1.14537445 -0.34361233 0 0 Z " fill="#274492" transform="translate(273,328)"/>
<path d="M0 0 C0.33 0 0.66 0 1 0 C1.740984 4.075412 2 7.8565618 2 12 C1.34 12 0.68 12 0 12 C0.08679142 14.46008778 0.19360955 16.91643517 0.3125 19.375 C0.33505859 20.07367188 0.35761719 20.77234375 0.38085938 21.4921875 C0.46984296 23.77288941 0.46984296 23.77288941 1 27 C1.99 27.66 2.98 28.32 4 29 C2.35 29.33 0.7 29.66 -1 30 C-1.22768266 26.31343081 -1.42864448 22.6258599 -1.625 18.9375 C-1.68945312 17.89916016 -1.75390625 16.86082031 -1.8203125 15.79101562 C-2.11274965 10.03365922 -2.01556322 5.42355751 0 0 Z " fill="#2A55AC" transform="translate(251,308)"/>
<path d="M0 0 C1.98 0.99 1.98 0.99 4 2 C4 16.52 4 31.04 4 46 C3.67 46 3.34 46 3 46 C3 31.81 3 17.62 3 3 C2.01 3 1.02 3 0 3 C0 2.01 0 1.02 0 0 Z " fill="#49B882" transform="translate(327,216)"/>
<path d="M0 0 C4.51870435 0.76732715 7.62006056 2.93843136 11.3125 5.5625 C10.6525 6.2225 9.9925 6.8825 9.3125 7.5625 C9.3125 6.9025 9.3125 6.2425 9.3125 5.5625 C5.33272924 4.7183062 1.34242782 4.11562735 -2.6875 3.5625 C-4.1725 9.0075 -4.1725 9.0075 -5.6875 14.5625 C-6.0175 14.5625 -6.3475 14.5625 -6.6875 14.5625 C-6.59981752 12.9781683 -6.49162671 11.39496433 -6.375 9.8125 C-6.28798828 8.48992187 -6.28798828 8.48992187 -6.19921875 7.140625 C-5.39967518 3.11239021 -4.10114792 0.8583798 0 0 Z " fill="#3D9B6C" transform="translate(306.6875,170.4375)"/>
<path d="M0 0 C0.66 0.33 1.32 0.66 2 1 C0.625 3 0.625 3 -1 5 C-1.66 5 -2.32 5 -3 5 C-3.2475 5.556875 -3.495 6.11375 -3.75 6.6875 C-5.22924818 9.42410913 -6.93467439 11.67650869 -9 14 C-9.66 14 -10.32 14 -11 14 C-11.33 14.99 -11.66 15.98 -12 17 C-12.99 16.67 -13.98 16.34 -15 16 C-13.88266271 14.49428343 -12.75589965 12.99555708 -11.625 11.5 C-10.99851563 10.6646875 -10.37203125 9.829375 -9.7265625 8.96875 C-9.15679687 8.3190625 -8.58703125 7.669375 -8 7 C-7.34 7 -6.68 7 -6 7 C-6 6.34 -6 5.68 -6 5 C-5.34 5 -4.68 5 -4 5 C-4 4.34 -4 3.68 -4 3 C-2 1.375 -2 1.375 0 0 Z " fill="#308276" transform="translate(218,159)"/>
<path d="M0 0 C1.67299959 0.65061095 3.33859237 1.32033324 5 2 C5.7425 2.28875 6.485 2.5775 7.25 2.875 C9 4 9 4 9.63671875 5.7421875 C10.06022225 8.37428453 9.8756857 10.60532076 9.5625 13.25 C9.46066406 14.14203125 9.35882813 15.0340625 9.25390625 15.953125 C9.17011719 16.62859375 9.08632812 17.3040625 9 18 C8.01 17.67 7.02 17.34 6 17 C6.05800781 16.32453125 6.11601562 15.6490625 6.17578125 14.953125 C6.3136675 12.22691679 6.35826747 9.70833146 6 7 C3.69931981 4.50789479 3.69931981 4.50789479 1 3 C0.67 2.01 0.34 1.02 0 0 Z " fill="#2D4B8D" transform="translate(234,300)"/>
<path d="M0 0 C0 0.66 0 1.32 0 2 C-0.99 2 -1.98 2 -3 2 C-3.33 2.99 -3.66 3.98 -4 5 C-5.5234375 6.16796875 -5.5234375 6.16796875 -7.375 7.1875 C-8.28378906 7.70376953 -8.28378906 7.70376953 -9.2109375 8.23046875 C-11 9 -11 9 -14 9 C-14 9.66 -14 10.32 -14 11 C-15.65 11 -17.3 11 -19 11 C-15.84559881 7.4882036 -12.53598933 5.44790407 -8.375 3.25 C-7.22773438 2.63640625 -6.08046875 2.0228125 -4.8984375 1.390625 C-2 0 -2 0 0 0 Z " fill="#328E6F" transform="translate(239,148)"/>
<path d="M0 0 C0.66 0 1.32 0 2 0 C8.18465998 8.85363528 8.7622508 15.54022508 8 26 C7.67 26 7.34 26 7 26 C6.83564453 24.48019531 6.83564453 24.48019531 6.66796875 22.9296875 C6.50840107 21.57805539 6.34821167 20.22649657 6.1875 18.875 C6.11724609 18.20984375 6.04699219 17.5446875 5.97460938 16.859375 C5.20254006 10.55928941 2.95649558 5.89851834 -1 1 C-0.67 0.67 -0.34 0.34 0 0 Z " fill="#318B85" transform="translate(293,252)"/>
<path d="M0 0 C0.66 0 1.32 0 2 0 C2.66 0.99 3.32 1.98 4 3 C4.99 3.33 5.98 3.66 7 4 C7 6 7 6 5.625 7.625 C4 9 4 9 2 9 C2 8.34 2 7.68 2 7 C-0.97 7 -3.94 7 -7 7 C-3 5 -3 5 1 5 C1 4.34 1 3.68 1 3 C0.34 3 -0.32 3 -1 3 C-0.67 2.01 -0.34 1.02 0 0 Z " fill="#38C989" transform="translate(274,214)"/>
<path d="M0 0 C0.70125 0.44730469 1.4025 0.89460937 2.125 1.35546875 C7.73407926 4.92973257 13.3539018 8.4845049 19 12 C15.42423881 13.1919204 14.70817048 12.74829813 11.375 11.25 C10.57835937 10.90453125 9.78171875 10.5590625 8.9609375 10.203125 C7 9 7 9 6 6 C4.00628175 4.65729179 2.0065438 3.32346506 0 2 C0 1.34 0 0.68 0 0 Z " fill="#2F7B7D" transform="translate(243,214)"/>
<path d="M0 0 C2.31 0.33 4.62 0.66 7 1 C7.33 1.99 7.66 2.98 8 4 C9.97746603 4.73080266 11.98072489 5.39421747 14 6 C14.99 6.66 15.98 7.32 17 8 C17 8.99 17 9.98 17 11 C12.80591769 9.5137853 9.37332677 7.41721984 5.6875 4.9375 C4.61886719 4.22464844 3.55023438 3.51179687 2.44921875 2.77734375 C1.64097656 2.19082031 0.83273437 1.60429687 0 1 C0 0.67 0 0.34 0 0 Z " fill="#3FA471" transform="translate(304,194)"/>
<path d="M0 0 C1.32 0.66 2.64 1.32 4 2 C2.68 2.33 1.36 2.66 0 3 C0 13.23 0 23.46 0 34 C-0.33 34 -0.66 34 -1 34 C-1.02465288 29.31860746 -1.04283739 24.63725241 -1.05493164 19.95581055 C-1.05997157 18.36205386 -1.0668035 16.76830181 -1.07543945 15.17456055 C-1.08751999 12.88849747 -1.09323155 10.60249533 -1.09765625 8.31640625 C-1.10281754 7.59973282 -1.10797882 6.88305939 -1.11329651 6.14466858 C-1.11349263 4.42936328 -1.06192007 2.71418734 -1 1 C-0.67 0.67 -0.34 0.34 0 0 Z " fill="#2F52A8" transform="translate(199,262)"/>
<path d="M0 0 C0.66 0 1.32 0 2 0 C4.26598448 3.39897673 4.23742654 4.56319173 4.1953125 8.54296875 C4.18886719 9.61611328 4.18242187 10.68925781 4.17578125 11.79492188 C4.15902344 12.91447266 4.14226562 14.03402344 4.125 15.1875 C4.11597656 16.31865234 4.10695313 17.44980469 4.09765625 18.61523438 C4.07406862 21.41036828 4.041153 24.20507845 4 27 C3.67 27 3.34 27 3 27 C2.95101563 25.97261719 2.90203125 24.94523437 2.8515625 23.88671875 C2.42751605 15.78576678 1.73451699 7.94846619 0 0 Z " fill="#2F826F" transform="translate(307,262)"/>
<path d="M0 0 C2.5 0.8125 2.5 0.8125 5 3 C5.46346554 6.69681924 5.28328381 10.29212965 5 14 C3.109375 14.58984375 3.109375 14.58984375 1 15 C-0.75 13.5625 -0.75 13.5625 -2 12 C-0.68 12 0.64 12 2 12 C2 9.03 2 6.06 2 3 C1.34 2.67 0.68 2.34 0 2 C0 1.34 0 0.68 0 0 Z " fill="#295489" transform="translate(239,286)"/>
<path d="M0 0 C0.66 0.33 1.32 0.66 2 1 C2 6.94 2 12.88 2 19 C1.34 19 0.68 19 0 19 C-0.19534474 16.58373582 -0.38153404 14.16734771 -0.5625 11.75 C-0.61857422 11.06808594 -0.67464844 10.38617188 -0.73242188 9.68359375 C-0.98186254 6.2579419 -1.13879745 3.27298823 0 0 Z " fill="#59D587" transform="translate(329,186)"/>
<path d="M0 0 C3.69876091 1.37287342 6.9514476 3.06355453 10.3125 5.125 C11.19550781 5.66382813 12.07851563 6.20265625 12.98828125 6.7578125 C13.65214844 7.16773438 14.31601562 7.57765625 15 8 C12.43992191 8.95272312 11.31101605 9.11623296 8.7109375 8.14453125 C7.94007813 7.70496094 7.16921875 7.26539063 6.375 6.8125 C5.59898437 6.38582031 4.82296875 5.95914063 4.0234375 5.51953125 C1.81112866 3.85816419 1.0127377 2.54273391 0 0 Z " fill="#43A16C" transform="translate(262,149)"/>
<path d="M0 0 C0.33 0.66 0.66 1.32 1 2 C1.66 2 2.32 2 3 2 C3 2.66 3 3.32 3 4 C3.54140625 4.10183594 4.0828125 4.20367187 4.640625 4.30859375 C7.60596581 5.17757607 10.05524946 6.55472291 12.75 8.0625 C13.73484375 8.61035156 14.7196875 9.15820312 15.734375 9.72265625 C16.85585937 10.35494141 16.85585937 10.35494141 18 11 C17.01 11.33 16.02 11.66 15 12 C14.01 11.34 13.02 10.68 12 10 C10.01200182 9.29835358 8.01301483 8.62627128 6 8 C6 7.34 6 6.68 6 6 C4.02 5.34 2.04 4.68 0 4 C0 2.68 0 1.36 0 0 Z " fill="#243886" transform="translate(206,298)"/>
<path d="M0 0 C0.66 2.97 1.32 5.94 2 9 C1.01 9 0.02 9 -1 9 C-1 8.34 -1 7.68 -1 7 C-2.98 6.34 -4.96 5.68 -7 5 C-2.25 0 -2.25 0 0 0 Z " fill="#3CC885" transform="translate(291,223)"/>
<path d="M0 0 C2.77109837 1.52060272 5.39660308 3.20933866 8 5 C5 6 5 6 2 6 C1.67 5.01 1.34 4.02 1 3 C-0.0725 2.855625 -1.145 2.71125 -2.25 2.5625 C-4.91662949 2.16250558 -7.41399729 1.72408076 -10 1 C-6.37329519 -1.37130699 -4.11466938 -1.18692386 0 0 Z " fill="#3D9867" transform="translate(254,143)"/>
<path d="M0 0 C0.33 0.66 0.66 1.32 1 2 C0.67 2.99 0.34 3.98 0 5 C3.465 4.505 3.465 4.505 7 4 C0.40909091 9 0.40909091 9 -4 9 C-2.80100302 5.9168649 -1.52299523 2.93720508 0 0 Z " fill="#32857D" transform="translate(305,303)"/>
<path d="M0 0 C1.62818946 0.22830701 3.2526349 0.48343576 4.875 0.75 C6.23238281 0.95882813 6.23238281 0.95882813 7.6171875 1.171875 C10 2 10 2 11.3203125 4.078125 C11.54460937 4.71234375 11.76890625 5.3465625 12 6 C12.66 6 13.32 6 14 6 C14.33 6.99 14.66 7.98 15 9 C11.32305352 7.62859834 8.04681411 5.96304199 4.6875 3.9375 C3.80449219 3.41027344 2.92148438 2.88304687 2.01171875 2.33984375 C1.34785156 1.89769531 0.68398437 1.45554687 0 1 C0 0.67 0 0.34 0 0 Z " fill="#2A508F" transform="translate(214,284)"/>
<path d="M0 0 C2.64 0.33 5.28 0.66 8 1 C8.33 2.32 8.66 3.64 9 5 C2.25 5.125 2.25 5.125 0 4 C0 2.68 0 1.36 0 0 Z " fill="#39BD83" transform="translate(263,192)"/>
<path d="M0 0 C2.52615842 3.12762471 4.26798012 6.37850388 6 10 C6.33 10.66 6.66 11.32 7 12 C4.625 11.6875 4.625 11.6875 2 11 C-0.67927341 6.98108988 -0.15601248 4.75838077 0 0 Z " fill="#47BB7C" transform="translate(301,182)"/>
<path d="M0 0 C4.28806873 0.47645208 6.26647487 1.65902484 9 5 C9 5.66 9 6.32 9 7 C7.35 7 5.7 7 4 7 C3.566875 6.0409375 3.566875 6.0409375 3.125 5.0625 C2.17176549 2.84793921 2.17176549 2.84793921 0 2 C0 1.34 0 0.68 0 0 Z " fill="#40B369" transform="translate(281,161)"/>
<path d="M0 0 C5.66153846 1.47692308 5.66153846 1.47692308 7.375 4.125 C7.58125 4.74375 7.7875 5.3625 8 6 C6.6078125 5.7215625 6.6078125 5.7215625 5.1875 5.4375 C1.98656229 4.75876119 1.98656229 4.75876119 -1 6 C-0.67 4.02 -0.34 2.04 0 0 Z " fill="#2D54A1" transform="translate(203,265)"/>
<path d="M0 0 C0.99 0.33 1.98 0.66 3 1 C2.1875 2.9375 2.1875 2.9375 1 5 C0.01 5.33 -0.98 5.66 -2 6 C-2 6.66 -2 7.32 -2 8 C-4.5 9.625 -4.5 9.625 -7 11 C-7 10.01 -7 9.02 -7 8 C-6.34 8 -5.68 8 -5 8 C-4.896875 7.360625 -4.79375 6.72125 -4.6875 6.0625 C-4.460625 5.381875 -4.23375 4.70125 -4 4 C-3.01 3.67 -2.02 3.34 -1 3 C-0.67 2.01 -0.34 1.02 0 0 Z " fill="#2F777B" transform="translate(262,227)"/>
<path d="M0 0 C5.53846154 0.61538462 5.53846154 0.61538462 7.875 2.5625 C8.431875 3.2740625 8.431875 3.2740625 9 4 C6.36 3.67 3.72 3.34 1 3 C1 5.97 1 8.94 1 12 C0.67 12 0.34 12 0 12 C0 8.04 0 4.08 0 0 Z " fill="#41B37A" transform="translate(302,202)"/>
<path d="M0 0 C0.99 0 1.98 0 3 0 C3.33 0.33 3.66 0.66 4 1 C4.99 0.67 5.98 0.34 7 0 C7 1.32 7 2.64 7 4 C4.6875 4.625 4.6875 4.625 2 5 C1.01 4.34 0.02 3.68 -1 3 C-0.67 2.01 -0.34 1.02 0 0 Z " fill="#38D084" transform="translate(281,200)"/>
<path d="M0 0 C-5.14285714 4.42857143 -5.14285714 4.42857143 -9 5 C-9.33 4.34 -9.66 3.68 -10 3 C-6.81859267 -0.48439851 -4.56758339 -1.41752588 0 0 Z " fill="#264F86" transform="translate(282,322)"/>
<path d="M0 0 C0.33 0 0.66 0 1 0 C1 1.65 1 3.3 1 5 C1.66 5.33 2.32 5.66 3 6 C3.40729228 8.32156597 3.74438677 10.6568787 4 13 C2.68 12.67 1.36 12.34 0 12 C0 8.04 0 4.08 0 0 Z " fill="#293CB3" transform="translate(198,296)"/>
<path d="M0 0 C0.66 0 1.32 0 2 0 C2 0.66 2 1.32 2 2 C1.34 2 0.68 2 0 2 C0 3.32 0 4.64 0 6 C-1.8125 7.8125 -1.8125 7.8125 -4 9 C-4.99 8.67 -5.98 8.34 -7 8 C-5.88200014 6.66079162 -4.75538103 5.32877444 -3.625 4 C-2.68527344 2.88625 -2.68527344 2.88625 -1.7265625 1.75 C-1.15679687 1.1725 -0.58703125 0.595 0 0 Z " fill="#358A97" transform="translate(255,233)"/>
<path d="M0 0 C1.12588014 0.95729916 2.2506715 1.91587895 3.375 2.875 C4.00148437 3.40867188 4.62796875 3.94234375 5.2734375 4.4921875 C6.55836651 5.61432007 7.79371975 6.79371975 9 8 C6.36 7.67 3.72 7.34 1 7 C1 6.01 1 5.02 1 4 C0.34 3.67 -0.32 3.34 -1 3 C-0.67 2.01 -0.34 1.02 0 0 Z " fill="#339694" transform="translate(240,212)"/>
<path d="M0 0 C1.46080933 0.61919078 2.91857455 1.24556692 4.375 1.875 C5.18710937 2.22304687 5.99921875 2.57109375 6.8359375 2.9296875 C9 4 9 4 11 6 C10.01 6.33 9.02 6.66 8 7 C7.67 6.34 7.34 5.68 7 5 C4.69 5 2.38 5 0 5 C0 3.35 0 1.7 0 0 Z " fill="#42DF7B" transform="translate(264,153)"/>
<path d="M0 0 C0.33 0.66 0.66 1.32 1 2 C-0.11375 1.95875 -1.2275 1.9175 -2.375 1.875 C-6.04366025 1.58878141 -6.04366025 1.58878141 -8 4 C-9.32 3.34 -10.64 2.68 -12 2 C-11 0 -11 0 -9.375 -0.6875 C-6.07889932 -1.12119746 -3.24136438 -0.672736 0 0 Z " fill="#45D47F" transform="translate(255,145)"/>
<path d="M0 0 C0.66 0.33 1.32 0.66 2 1 C1.67 4.3 1.34 7.6 1 11 C-2.68754757 10.50168276 -4.60490662 9.89932357 -7 7 C-2.25 7.875 -2.25 7.875 0 9 C0 6.03 0 3.06 0 0 Z " fill="#26397D" transform="translate(242,323)"/>
<path d="M0 0 C1.485 0.99 1.485 0.99 3 2 C3 3.32 3 4.64 3 6 C3.99 6.33 4.98 6.66 6 7 C6.6875 9.0625 6.6875 9.0625 7 11 C5.1875 10.9375 5.1875 10.9375 3 10 C1.18721244 6.5039097 0 3.96018245 0 0 Z " fill="#2D6D9E" transform="translate(202,225)"/>
<path d="M0 0 C2.97 1.65 5.94 3.3 9 5 C4.44968209 6.13757948 2.36915594 5.4283779 -2 4 C-2 3.34 -2 2.68 -2 2 C-1.34 2 -0.68 2 0 2 C0 1.34 0 0.68 0 0 Z " fill="#43BA73" transform="translate(319,177)"/>
<path d="M0 0 C2.31 0.66 4.62 1.32 7 2 C7.33 3.65 7.66 5.3 8 7 C4.7 5.35 1.4 3.7 -2 2 C-1.34 1.34 -0.68 0.68 0 0 Z " fill="#349271" transform="translate(251,186)"/>
<path d="M0 0 C2.97 0.495 2.97 0.495 6 1 C5.67 2.32 5.34 3.64 5 5 C3.35 5.33 1.7 5.66 0 6 C0.185625 5.38125 0.37125 4.7625 0.5625 4.125 C1.23686176 1.95839822 1.23686176 1.95839822 0 0 Z " fill="#339B9E" transform="translate(256,226)"/>
<path d="M0 0 C3.875 0.875 3.875 0.875 5 2 C5.14115161 4.67058851 5.04247107 7.32432238 5 10 C3 9 3 9 1.9375 6.125 C1.628125 5.09375 1.31875 4.0625 1 3 C0.67 2.01 0.34 1.02 0 0 Z " fill="#4ECF84" transform="translate(289,166)"/>
<path d="M0 0 C0 0.66 0 1.32 0 2 C-0.99 2 -1.98 2 -3 2 C-3.33 2.99 -3.66 3.98 -4 5 C-6.5625 6.1875 -6.5625 6.1875 -9 7 C-8.875 5.1875 -8.875 5.1875 -8 3 C-2.96428571 0 -2.96428571 0 0 0 Z " fill="#399F72" transform="translate(239,148)"/>
<path d="M0 0 C2.0625 0.4375 2.0625 0.4375 4 1 C2.68 3.31 1.36 5.62 0 8 C-0.33 8 -0.66 8 -1 8 C-1.04241723 5.66705225 -1.04092937 3.33297433 -1 1 C-0.67 0.67 -0.34 0.34 0 0 Z " fill="#2B6D92" transform="translate(293,304)"/>
<path d="M0 0 C0.33 0 0.66 0 1 0 C1 4.29 1 8.58 1 13 C0.34 12.67 -0.32 12.34 -1 12 C-1 11.34 -1 10.68 -1 10 C-1.99 9.67 -2.98 9.34 -4 9 C-2.68 8.67 -1.36 8.34 0 8 C0 5.36 0 2.72 0 0 Z " fill="#43BF82" transform="translate(293,200)"/>
<path d="M0 0 C0.33 1.32 0.66 2.64 1 4 C1.66 4 2.32 4 3 4 C3 4.66 3 5.32 3 6 C1.68 5.67 0.36 5.34 -1 5 C-1 4.34 -1 3.68 -1 3 C-2.32 2.67 -3.64 2.34 -5 2 C-5 1.67 -5 1.34 -5 1 C-3.35 0.67 -1.7 0.34 0 0 Z " fill="#274783" transform="translate(234,292)"/>
<path d="M0 0 C3.3 1.98 6.6 3.96 10 6 C9.01 6.495 9.01 6.495 8 7 C6.0546875 6.22265625 6.0546875 6.22265625 3.875 5.0625 C3.15054688 4.68222656 2.42609375 4.30195313 1.6796875 3.91015625 C1.12539062 3.60980469 0.57109375 3.30945313 0 3 C0 2.01 0 1.02 0 0 Z " fill="#2B5690" transform="translate(223,276)"/>
<path d="M0 0 C1.32 0 2.64 0 4 0 C4 1.98 4 3.96 4 6 C2.68 5.34 1.36 4.68 0 4 C0 2.68 0 1.36 0 0 Z " fill="#287FB3" transform="translate(230,244)"/>
<path d="M0 0 C2.64 1.32 5.28 2.64 8 4 C3.99998285 5.00000429 1.94476647 4.80688405 -2 4 C-2 3.34 -2 2.68 -2 2 C-1.34 2 -0.68 2 0 2 C0 1.34 0 0.68 0 0 Z " fill="#37A468" transform="translate(319,211)"/>
<path d="M0 0 C2.97 0.33 5.94 0.66 9 1 C9.33 1.99 9.66 2.98 10 4 C2.25 3.125 2.25 3.125 0 2 C0 1.34 0 0.68 0 0 Z " fill="#45D17F" transform="translate(303,205)"/>
<path d="M0 0 C1.45792884 -0.05399736 2.91642712 -0.09279177 4.375 -0.125 C5.18710937 -0.14820313 5.99921875 -0.17140625 6.8359375 -0.1953125 C9 0 9 0 11 2 C7.26840331 3.24386556 4.81984796 2.77811718 1 2 C0.67 1.34 0.34 0.68 0 0 Z " fill="#41E777" transform="translate(313,181)"/>
<path d="M0 0 C0.99 0.33 1.98 0.66 3 1 C0.69 3.31 -1.62 5.62 -4 8 C-4.33 7.01 -4.66 6.02 -5 5 C-4.34 5 -3.68 5 -3 5 C-2.5359375 4.0409375 -2.5359375 4.0409375 -2.0625 3.0625 C-1 1 -1 1 0 0 Z " fill="#37B68E" transform="translate(220,159)"/>
<path d="M0 0 C2.75 -0.3125 2.75 -0.3125 6 0 C8.375 2.5 8.375 2.5 10 5 C6.08788267 3.84414715 3.1254959 2.64465038 0 0 Z " fill="#254282" transform="translate(227,309)"/>
<path d="M0 0 C3.3 1.98 6.6 3.96 10 6 C9.01 6.495 9.01 6.495 8 7 C5.375 6.0625 5.375 6.0625 3 5 C3 4.34 3 3.68 3 3 C2.01 2.67 1.02 2.34 0 2 C0 1.34 0 0.68 0 0 Z " fill="#26427C" transform="translate(217,289)"/>
<path d="M0 0 C1.32 0.33 2.64 0.66 4 1 C5.25 4.0625 5.25 4.0625 6 7 C5.34 7.66 4.68 8.32 4 9 C2.68 6.03 1.36 3.06 0 0 Z " fill="#2D8B75" transform="translate(302,253)"/>
<path d="M0 0 C0.66 0.33 1.32 0.66 2 1 C0.8125 3.4375 0.8125 3.4375 -1 6 C-3.6875 6.8125 -3.6875 6.8125 -6 7 C-4.625 5 -4.625 5 -3 3 C-2.34 3 -1.68 3 -1 3 C-0.67 2.01 -0.34 1.02 0 0 Z " fill="#286869" transform="translate(266,237)"/>
<path d="M0 0 C1.32 0.66 2.64 1.32 4 2 C2.25 3.5625 2.25 3.5625 0 5 C-2.25 4.6875 -2.25 4.6875 -4 4 C-2.68 2.68 -1.36 1.36 0 0 Z " fill="#28727C" transform="translate(256,246)"/>
<path d="M0 0 C2.31 0 4.62 0 7 0 C7 1.32 7 2.64 7 4 C4.97954558 3.39816251 2.97888961 2.72693904 1 2 C0.67 1.34 0.34 0.68 0 0 Z " fill="#3B996D" transform="translate(280,205)"/>
<path d="M0 0 C2 3 2 3 1.7578125 5.04296875 C1.171875 7.02864583 0.5859375 9.01432292 0 11 C-0.33 11 -0.66 11 -1 11 C-1.02688151 9.35425434 -1.04634123 7.70838587 -1.0625 6.0625 C-1.07410156 5.14597656 -1.08570313 4.22945313 -1.09765625 3.28515625 C-1 1 -1 1 0 0 Z " fill="#375291" transform="translate(250,304)"/>
<path d="M0 0 C2.31 0 4.62 0 7 0 C4.82575883 2.50037734 3.26954202 3.43628586 0 4 C0 2.68 0 1.36 0 0 Z " fill="#2F8679" transform="translate(322,297)"/>
<path d="M0 0 C1.32 0 2.64 0 4 0 C4.33 1.65 4.66 3.3 5 5 C2.525 4.01 2.525 4.01 0 3 C0 2.01 0 1.02 0 0 Z " fill="#24708D" transform="translate(246,262)"/>
<path d="M0 0 C3.82946843 1.45255699 5.12050295 3.42895561 7 7 C4.13302508 5.71480435 2.02392288 4.42870746 0 2 C0 1.34 0 0.68 0 0 Z " fill="#28557A" transform="translate(207,236)"/>
<path d="M0 0 C2.31 0.33 4.62 0.66 7 1 C7 1.99 7 2.98 7 4 C3.73045798 3.43628586 2.17424117 2.50037734 0 0 Z " fill="#3B9C64" transform="translate(304,194)"/>
<path d="M0 0 C3.37503669 1.1858237 5.64722731 2.27573689 8 5 C7.01 5.495 7.01 5.495 6 6 C6 5.34 6 4.68 6 4 C4.35 3.67 2.7 3.34 1 3 C0.67 2.01 0.34 1.02 0 0 Z " fill="#40A86D" transform="translate(310,172)"/>
<path d="M0 0 C2.91517292 1.07401108 4.77810176 1.77810176 7 4 C5.1875 4.6875 5.1875 4.6875 3 5 C1.25 3.6875 1.25 3.6875 0 2 C0 1.34 0 0.68 0 0 Z " fill="#36A768" transform="translate(262,149)"/>
<path d="M0 0 C3.465 1.98 3.465 1.98 7 4 C4 5 4 5 1 5 C0.67 3.35 0.34 1.7 0 0 Z " fill="#318F58" transform="translate(255,144)"/>
</svg>
